<svg xmlns="http://www.w3.org/2000/svg" viewBox="0 0 100 100">
  <!-- Background -->
  <rect x="0" y="0" width="100" height="100" rx="10" fill="#4A90E2"/>
  
  <!-- Cards -->
  <rect x="20" y="25" width="30" height="40" rx="3" 
        fill="#FFFFFF" transform="rotate(-10 20 25)"/>
  <rect x="50" y="25" width="30" height="40" rx="3" 
        fill="#FFFFFF" transform="rotate(10 80 25)"/>
  
  <!-- Brain Symbol -->
  <path d="M50 35 
           C60 35, 65 30, 65 25
           C65 20, 60 15, 55 15
           C50 15, 45 18, 45 23
           C45 18, 40 15, 35 15
           C30 15, 25 20, 25 25
           C25 30, 30 35, 40 35
           C40 40, 45 45, 50 45
           C55 45, 60 40, 60 35"
        fill="#FF6B6B"/>
  
  <!-- Card Decorations -->
  <circle cx="30" cy="55" r="3" fill="#4A90E2"/>
  <circle cx="70" cy="55" r="3" fill="#4A90E2"/>
</svg>
